<svg width="68" height="72" viewBox="0 0 68 72" fill="none" xmlns="http://www.w3.org/2000/svg">
<g clip-path="url(#clip0_15_16)">
<path d="M59.3548 5.64514H8C4.13401 5.64514 1 8.77915 1 12.6451V63.9999C1 67.8659 4.13401 70.9999 8 70.9999H59.3548C63.2208 70.9999 66.3548 67.8659 66.3548 63.9999V12.6451C66.3548 8.77915 63.2208 5.64514 59.3548 5.64514Z" stroke="#656E79" stroke-width="2"/>
<path d="M67.3548 23.2258H0V25.2471H67.3548V23.2258Z" fill="#656E79"/>
<path d="M16.8387 0H14.5161V14.5161H16.8387V0Z" fill="#656E79"/>
<path d="M19.7418 12.1935H11.6128V14.5161H19.7418V12.1935Z" fill="#656E79"/>
<path d="M52.8387 0H50.5161V14.5161H52.8387V0Z" fill="#656E79"/>
<path d="M55.7418 12.1935H47.6128V14.5161H55.7418V12.1935Z" fill="#656E79"/>
<path d="M24.387 40.0645C25.6698 40.0645 26.7096 39.0246 26.7096 37.7419C26.7096 36.4592 25.6698 35.4193 24.387 35.4193C23.1043 35.4193 22.0645 36.4592 22.0645 37.7419C22.0645 39.0246 23.1043 40.0645 24.387 40.0645Z" fill="#656E79"/>
<path d="M33.6773 40.0645C34.96 40.0645 35.9999 39.0246 35.9999 37.7419C35.9999 36.4592 34.96 35.4193 33.6773 35.4193C32.3946 35.4193 31.3547 36.4592 31.3547 37.7419C31.3547 39.0246 32.3946 40.0645 33.6773 40.0645Z" fill="#656E79"/>
<path d="M42.9676 40.0645C44.2503 40.0645 45.2902 39.0246 45.2902 37.7419C45.2902 36.4592 44.2503 35.4193 42.9676 35.4193C41.6849 35.4193 40.645 36.4592 40.645 37.7419C40.645 39.0246 41.6849 40.0645 42.9676 40.0645Z" fill="#656E79"/>
<path d="M52.2579 40.0645C53.5406 40.0645 54.5805 39.0246 54.5805 37.7419C54.5805 36.4592 53.5406 35.4193 52.2579 35.4193C50.9752 35.4193 49.9353 36.4592 49.9353 37.7419C49.9353 39.0246 50.9752 40.0645 52.2579 40.0645Z" fill="#656E79"/>
<path d="M24.387 49.3548C25.6698 49.3548 26.7096 48.3149 26.7096 47.0322C26.7096 45.7495 25.6698 44.7096 24.387 44.7096C23.1043 44.7096 22.0645 45.7495 22.0645 47.0322C22.0645 48.3149 23.1043 49.3548 24.387 49.3548Z" fill="#656E79"/>
<path d="M15.0967 49.3548C16.3795 49.3548 17.4193 48.3149 17.4193 47.0322C17.4193 45.7495 16.3795 44.7096 15.0967 44.7096C13.814 44.7096 12.7742 45.7495 12.7742 47.0322C12.7742 48.3149 13.814 49.3548 15.0967 49.3548Z" fill="#656E79"/>
<path d="M33.6773 49.3548C34.96 49.3548 35.9999 48.3149 35.9999 47.0322C35.9999 45.7495 34.96 44.7096 33.6773 44.7096C32.3946 44.7096 31.3547 45.7495 31.3547 47.0322C31.3547 48.3149 32.3946 49.3548 33.6773 49.3548Z" fill="#656E79"/>
<path d="M42.9676 49.3548C44.2503 49.3548 45.2902 48.3149 45.2902 47.0322C45.2902 45.7495 44.2503 44.7096 42.9676 44.7096C41.6849 44.7096 40.645 45.7495 40.645 47.0322C40.645 48.3149 41.6849 49.3548 42.9676 49.3548Z" fill="#656E79"/>
<path d="M24.387 58.6452C25.6698 58.6452 26.7096 57.6053 26.7096 56.3226C26.7096 55.0399 25.6698 54 24.387 54C23.1043 54 22.0645 55.0399 22.0645 56.3226C22.0645 57.6053 23.1043 58.6452 24.387 58.6452Z" fill="#656E79"/>
<path d="M15.0967 58.6452C16.3795 58.6452 17.4193 57.6053 17.4193 56.3226C17.4193 55.0399 16.3795 54 15.0967 54C13.814 54 12.7742 55.0399 12.7742 56.3226C12.7742 57.6053 13.814 58.6452 15.0967 58.6452Z" fill="#656E79"/>
<path d="M33.6773 58.6452C34.96 58.6452 35.9999 57.6053 35.9999 56.3226C35.9999 55.0399 34.96 54 33.6773 54C32.3946 54 31.3547 55.0399 31.3547 56.3226C31.3547 57.6053 32.3946 58.6452 33.6773 58.6452Z" fill="#656E79"/>
<path d="M42.9676 58.6452C44.2503 58.6452 45.2902 57.6053 45.2902 56.3226C45.2902 55.0399 44.2503 54 42.9676 54C41.6849 54 40.645 55.0399 40.645 56.3226C40.645 57.6053 41.6849 58.6452 42.9676 58.6452Z" fill="#656E79"/>
<path d="M52.2579 49.3548C53.5406 49.3548 54.5805 48.3149 54.5805 47.0322C54.5805 45.7495 53.5406 44.7096 52.2579 44.7096C50.9752 44.7096 49.9353 45.7495 49.9353 47.0322C49.9353 48.3149 50.9752 49.3548 52.2579 49.3548Z" fill="#656E79"/>
</g>
<defs>
<clipPath id="clip0_15_16">
<rect width="68" height="72" fill="white"/>
</clipPath>
</defs>
</svg>
