<svg width="60" height="60" viewBox="0 0 60 60" fill="none" xmlns="http://www.w3.org/2000/svg">
<path d="M40.2878 30.06C40.2878 31.74 39.8545 33.22 38.9878 34.5C38.1345 35.78 36.9011 36.7867 35.2878 37.52C33.6745 38.24 31.7211 38.6 29.4278 38.6C27.0278 38.6 24.9678 38.2467 23.2478 37.54C21.5278 36.82 20.0878 35.9 18.9278 34.78L21.8078 31.56C22.8078 32.4533 23.9278 33.1533 25.1678 33.66C26.4078 34.1667 27.8011 34.42 29.3478 34.42C30.3345 34.42 31.2211 34.2667 32.0078 33.96C32.8078 33.6533 33.4345 33.2067 33.8878 32.62C34.3545 32.02 34.5878 31.2867 34.5878 30.42C34.5878 29.66 34.4278 29.02 34.1078 28.5C33.7878 27.98 33.2345 27.5133 32.4478 27.1C31.6745 26.6867 30.5945 26.2733 29.2078 25.86C27.1678 25.2333 25.4878 24.5467 24.1678 23.8C22.8478 23.04 21.8678 22.1467 21.2278 21.12C20.5878 20.08 20.2678 18.8533 20.2678 17.44C20.2678 15.8533 20.7078 14.4867 21.5878 13.34C22.4678 12.18 23.6545 11.2933 25.1478 10.68C26.6545 10.0533 28.3345 9.74 30.1878 9.74C32.2411 9.74 34.0478 10.04 35.6078 10.64C37.1678 11.2267 38.5411 12.0667 39.7278 13.16L36.9878 16.26C36.0411 15.4467 35.0145 14.8467 33.9078 14.46C32.8145 14.0733 31.7011 13.88 30.5678 13.88C29.6745 13.88 28.8745 14 28.1678 14.24C27.4745 14.48 26.9278 14.8333 26.5278 15.3C26.1278 15.7667 25.9278 16.36 25.9278 17.08C25.9278 17.7333 26.1078 18.2933 26.4678 18.76C26.8411 19.2133 27.4745 19.64 28.3678 20.04C29.2611 20.4267 30.4878 20.8667 32.0478 21.36C33.6878 21.8533 35.1211 22.4467 36.3478 23.14C37.5878 23.8333 38.5545 24.7333 39.2478 25.84C39.9411 26.9333 40.2878 28.34 40.2878 30.06Z" fill="#2A2A2A"/>
<path d="M11.5856 49.015C11.5856 49.435 11.4773 49.805 11.2606 50.125C11.0473 50.445 10.739 50.6967 10.3356 50.88C9.93229 51.06 9.44396 51.15 8.87063 51.15C8.27063 51.15 7.75563 51.0617 7.32563 50.885C6.89563 50.705 6.53563 50.475 6.24563 50.195L6.96563 49.39C7.21563 49.6133 7.49563 49.7883 7.80563 49.915C8.11563 50.0417 8.46396 50.105 8.85063 50.105C9.09729 50.105 9.31896 50.0667 9.51563 49.99C9.71563 49.9133 9.87229 49.8017 9.98563 49.655C10.1023 49.505 10.1606 49.3217 10.1606 49.105C10.1606 48.915 10.1206 48.755 10.0406 48.625C9.96063 48.495 9.82229 48.3783 9.62563 48.275C9.43229 48.1717 9.16229 48.0683 8.81563 47.965C8.30563 47.8083 7.88563 47.6367 7.55563 47.45C7.22563 47.26 6.98063 47.0367 6.82063 46.78C6.66063 46.52 6.58063 46.2133 6.58063 45.86C6.58063 45.4633 6.69063 45.1217 6.91063 44.835C7.13063 44.545 7.42729 44.3233 7.80063 44.17C8.17729 44.0133 8.59729 43.935 9.06063 43.935C9.57396 43.935 10.0256 44.01 10.4156 44.16C10.8056 44.3067 11.149 44.5167 11.4456 44.79L10.7606 45.565C10.524 45.3617 10.2673 45.2117 9.99063 45.115C9.71729 45.0183 9.43896 44.97 9.15563 44.97C8.93229 44.97 8.73229 45 8.55563 45.06C8.38229 45.12 8.24563 45.2083 8.14563 45.325C8.04563 45.4417 7.99563 45.59 7.99563 45.77C7.99563 45.9333 8.04063 46.0733 8.13063 46.19C8.22396 46.3033 8.38229 46.41 8.60563 46.51C8.82896 46.6067 9.13563 46.7167 9.52563 46.84C9.93563 46.9633 10.294 47.1117 10.6006 47.285C10.9106 47.4583 11.1523 47.6833 11.3256 47.96C11.499 48.2333 11.5856 48.585 11.5856 49.015ZM14.1367 45.705V49.375C14.1367 49.6617 14.1934 49.8633 14.3067 49.98C14.4201 50.0967 14.5851 50.155 14.8017 50.155C15.0084 50.155 15.2101 50.0933 15.4067 49.97C15.6034 49.8433 15.7634 49.6833 15.8867 49.49V45.705H17.2067V51H16.0567L15.9867 50.35C15.7967 50.61 15.5534 50.8083 15.2567 50.945C14.9601 51.0817 14.6534 51.15 14.3367 51.15C13.8267 51.15 13.4451 51.0067 13.1917 50.72C12.9417 50.43 12.8167 50.035 12.8167 49.535V45.705H14.1367ZM18.8628 51V50.085H19.6078V46.615H18.8628V45.705H20.6128L20.8578 46.92C21.0511 46.47 21.2945 46.1317 21.5878 45.905C21.8811 45.675 22.2495 45.56 22.6928 45.56C22.8628 45.56 23.0128 45.5733 23.1428 45.6C23.2761 45.6267 23.4028 45.6617 23.5228 45.705L23.1278 46.815C23.0245 46.7883 22.9261 46.7683 22.8328 46.755C22.7395 46.7383 22.6345 46.73 22.5178 46.73C22.1511 46.73 21.8311 46.8733 21.5578 47.16C21.2878 47.4433 21.0778 47.8283 20.9278 48.315V50.085H21.9828V51H18.8628ZM22.4078 47.77V46.365L22.5878 45.705H23.5228L23.2878 47.77H22.4078ZM27.8539 45.705V50.065H29.2489V51H24.9839V50.065H26.5339V46.64H25.0339V45.705H27.8539ZM26.9989 43.035C27.2422 43.035 27.4389 43.11 27.5889 43.26C27.7422 43.41 27.8189 43.5967 27.8189 43.82C27.8189 44.0433 27.7422 44.2317 27.5889 44.385C27.4389 44.535 27.2422 44.61 26.9989 44.61C26.7556 44.61 26.5572 44.535 26.4039 44.385C26.2506 44.2317 26.1739 44.0433 26.1739 43.82C26.1739 43.5967 26.2506 43.41 26.4039 43.26C26.5572 43.11 26.7556 43.035 26.9989 43.035ZM35.625 45.705L33.66 48.065L35.815 51H34.26L32.22 48.1L34.17 45.705H35.625ZM32.145 43.45V51H30.825V43.59L32.145 43.45ZM41.0261 49.605C41.0261 49.8083 41.0561 49.9567 41.1161 50.05C41.1761 50.14 41.2728 50.2083 41.4061 50.255L41.1211 51.14C40.8378 51.11 40.5961 51.04 40.3961 50.93C40.1994 50.8167 40.0478 50.6483 39.9411 50.425C39.7411 50.6683 39.4878 50.85 39.1811 50.97C38.8778 51.09 38.5594 51.15 38.2261 51.15C37.6861 51.15 37.2578 50.9967 36.9411 50.69C36.6244 50.3833 36.4661 49.985 36.4661 49.495C36.4661 48.9317 36.6861 48.4983 37.1261 48.195C37.5694 47.8883 38.1961 47.735 39.0061 47.735H39.7461V47.45C39.7461 47.1367 39.6494 46.91 39.4561 46.77C39.2628 46.6267 38.9844 46.555 38.6211 46.555C38.4511 46.555 38.2378 46.5783 37.9811 46.625C37.7278 46.6683 37.4661 46.7367 37.1961 46.83L36.8811 45.925C37.2178 45.7983 37.5561 45.705 37.8961 45.645C38.2394 45.585 38.5511 45.555 38.8311 45.555C39.5744 45.555 40.1261 45.7133 40.4861 46.03C40.8461 46.3433 41.0261 46.7883 41.0261 47.365V49.605ZM38.6561 50.195C38.8561 50.195 39.0578 50.1383 39.2611 50.025C39.4678 49.9117 39.6294 49.7533 39.7461 49.55V48.52H39.2261C38.7361 48.52 38.3811 48.5983 38.1611 48.755C37.9444 48.9117 37.8361 49.1333 37.8361 49.42C37.8361 49.6667 37.9061 49.8583 38.0461 49.995C38.1861 50.1283 38.3894 50.195 38.6561 50.195ZM47.3672 50.705C47.1705 50.835 46.9322 50.9417 46.6522 51.025C46.3722 51.1083 46.0689 51.15 45.7422 51.15C45.0955 51.15 44.6089 50.9833 44.2822 50.65C43.9555 50.3133 43.7922 49.8667 43.7922 49.31V46.64H42.6422V45.705H43.7922V44.54L45.1122 44.38V45.705H46.8622L46.7272 46.64H45.1122V49.305C45.1122 49.5783 45.1789 49.7783 45.3122 49.905C45.4455 50.0317 45.6605 50.095 45.9572 50.095C46.1472 50.095 46.3205 50.0733 46.4772 50.03C46.6372 49.9833 46.7822 49.925 46.9122 49.855L47.3672 50.705ZM50.9933 45.555C51.5199 45.555 51.9666 45.67 52.3333 45.9C52.6999 46.13 52.9783 46.455 53.1683 46.875C53.3616 47.2917 53.4583 47.78 53.4583 48.34C53.4583 48.9133 53.3616 49.41 53.1683 49.83C52.9749 50.25 52.6949 50.575 52.3283 50.805C51.9616 51.035 51.5149 51.15 50.9883 51.15C50.4649 51.15 50.0183 51.0383 49.6483 50.815C49.2816 50.5883 49.0016 50.2667 48.8083 49.85C48.6149 49.43 48.5183 48.93 48.5183 48.35C48.5183 47.7967 48.6149 47.31 48.8083 46.89C49.0016 46.47 49.2833 46.1433 49.6533 45.91C50.0233 45.6733 50.4699 45.555 50.9933 45.555ZM50.9933 46.55C50.6233 46.55 50.3466 46.695 50.1633 46.985C49.9833 47.275 49.8933 47.73 49.8933 48.35C49.8933 48.9767 49.9833 49.435 50.1633 49.725C50.3433 50.0117 50.6183 50.155 50.9883 50.155C51.3583 50.155 51.6333 50.0117 51.8133 49.725C51.9933 49.435 52.0833 48.9733 52.0833 48.34C52.0833 47.7233 51.9933 47.2717 51.8133 46.985C51.6333 46.695 51.3599 46.55 50.9933 46.55Z" fill="#2A2A2A"/>
</svg>
