<svg width="71" height="32" viewBox="0 0 71 32" fill="none" xmlns="http://www.w3.org/2000/svg">
<g clip-path="url(#clip0_14_2)">
<path d="M23.2878 22.06C23.2878 23.74 22.8545 25.22 21.9878 26.5C21.1345 27.78 19.9011 28.7867 18.2878 29.52C16.6745 30.24 14.7211 30.6 12.4278 30.6C10.0278 30.6 7.96781 30.2467 6.24781 29.54C4.52781 28.82 3.08781 27.9 1.92781 26.78L4.80781 23.56C5.80781 24.4533 6.92781 25.1533 8.16781 25.66C9.40781 26.1667 10.8011 26.42 12.3478 26.42C13.3345 26.42 14.2211 26.2667 15.0078 25.96C15.8078 25.6533 16.4345 25.2067 16.8878 24.62C17.3545 24.02 17.5878 23.2867 17.5878 22.42C17.5878 21.66 17.4278 21.02 17.1078 20.5C16.7878 19.98 16.2345 19.5133 15.4478 19.1C14.6745 18.6867 13.5945 18.2733 12.2078 17.86C10.1678 17.2333 8.48781 16.5467 7.16781 15.8C5.84781 15.04 4.86781 14.1467 4.22781 13.12C3.58781 12.08 3.26781 10.8533 3.26781 9.44C3.26781 7.85333 3.70781 6.48667 4.58781 5.34C5.46781 4.18 6.65448 3.29333 8.14781 2.68C9.65448 2.05333 11.3345 1.74 13.1878 1.74C15.2411 1.74 17.0478 2.04 18.6078 2.64C20.1678 3.22666 21.5411 4.06666 22.7278 5.16L19.9878 8.26C19.0411 7.44667 18.0145 6.84667 16.9078 6.46C15.8145 6.07333 14.7011 5.88 13.5678 5.88C12.6745 5.88 11.8745 6 11.1678 6.24C10.4745 6.48 9.92781 6.83333 9.52781 7.3C9.12781 7.76667 8.92781 8.36 8.92781 9.08C8.92781 9.73333 9.10781 10.2933 9.46781 10.76C9.84115 11.2133 10.4745 11.64 11.3678 12.04C12.2611 12.4267 13.4878 12.8667 15.0478 13.36C16.6878 13.8533 18.1211 14.4467 19.3478 15.14C20.5878 15.8333 21.5545 16.7333 22.2478 17.84C22.9411 18.9333 23.2878 20.34 23.2878 22.06Z" fill="#2A2A2A"/>
<path d="M38.6245 12.288C38.9872 12.288 39.2965 12.3653 39.5525 12.52C39.8085 12.6693 40.0058 12.9227 40.1445 13.28C40.2832 13.632 40.3525 14.112 40.3525 14.72V21H38.5125V14.984C38.5125 14.6 38.4805 14.328 38.4165 14.168C38.3578 14.008 38.2218 13.928 38.0085 13.928C37.8325 13.928 37.6538 13.9813 37.4725 14.088C37.2965 14.1893 37.1125 14.3733 36.9205 14.64V21H35.3285V14.984C35.3285 14.6 35.2965 14.328 35.2325 14.168C35.1738 14.008 35.0378 13.928 34.8245 13.928C34.6432 13.928 34.4645 13.9813 34.2885 14.088C34.1125 14.1893 33.9285 14.3733 33.7365 14.64V21H31.8725V12.528H33.4485L33.5845 13.408C33.8352 13.056 34.0992 12.7813 34.3765 12.584C34.6538 12.3867 34.9872 12.288 35.3765 12.288C35.6965 12.288 35.9792 12.368 36.2245 12.528C36.4752 12.6827 36.6538 12.9493 36.7605 13.328C37.0058 13.0187 37.2805 12.768 37.5845 12.576C37.8885 12.384 38.2352 12.288 38.6245 12.288ZM43.9943 17.408C44.0369 17.936 44.1569 18.3653 44.3543 18.696C44.5569 19.0267 44.8156 19.2693 45.1302 19.424C45.4449 19.5787 45.7943 19.656 46.1783 19.656C46.5836 19.656 46.9649 19.592 47.3223 19.464C47.6796 19.336 48.0316 19.1573 48.3783 18.928L49.2583 20.136C48.8636 20.4667 48.3916 20.7333 47.8423 20.936C47.2983 21.1387 46.6983 21.24 46.0423 21.24C45.1249 21.24 44.3516 21.0507 43.7223 20.672C43.0983 20.2933 42.6263 19.768 42.3063 19.096C41.9863 18.424 41.8263 17.6507 41.8263 16.776C41.8263 15.9333 41.9836 15.1733 42.2983 14.496C42.6129 13.8187 43.0663 13.2827 43.6583 12.888C44.2503 12.488 44.9649 12.288 45.8023 12.288C46.5809 12.288 47.2529 12.4587 47.8183 12.8C48.3836 13.1413 48.8209 13.632 49.1302 14.272C49.4396 14.9067 49.5943 15.672 49.5943 16.568C49.5943 16.712 49.5889 16.8587 49.5783 17.008C49.5729 17.1573 49.5649 17.2907 49.5543 17.408H43.9943ZM45.8103 13.776C45.2983 13.776 44.8769 13.96 44.5463 14.328C44.2209 14.6907 44.0289 15.2667 43.9703 16.056H47.5383C47.5276 15.3413 47.3783 14.784 47.0903 14.384C46.8076 13.9787 46.3809 13.776 45.8103 13.776ZM53.588 17.408C53.6307 17.936 53.7507 18.3653 53.948 18.696C54.1507 19.0267 54.4093 19.2693 54.724 19.424C55.0387 19.5787 55.388 19.656 55.772 19.656C56.1773 19.656 56.5587 19.592 56.916 19.464C57.2733 19.336 57.6253 19.1573 57.972 18.928L58.852 20.136C58.4573 20.4667 57.9853 20.7333 57.436 20.936C56.892 21.1387 56.292 21.24 55.636 21.24C54.7187 21.24 53.9453 21.0507 53.316 20.672C52.692 20.2933 52.22 19.768 51.9 19.096C51.58 18.424 51.42 17.6507 51.42 16.776C51.42 15.9333 51.5773 15.1733 51.892 14.496C52.2067 13.8187 52.66 13.2827 53.252 12.888C53.844 12.488 54.5587 12.288 55.396 12.288C56.1747 12.288 56.8467 12.4587 57.412 12.8C57.9773 13.1413 58.4147 13.632 58.724 14.272C59.0333 14.9067 59.188 15.672 59.188 16.568C59.188 16.712 59.1827 16.8587 59.172 17.008C59.1667 17.1573 59.1587 17.2907 59.148 17.408H53.588ZM55.404 13.776C54.892 13.776 54.4707 13.96 54.14 14.328C53.8147 14.6907 53.6227 15.2667 53.564 16.056H57.132C57.1213 15.3413 56.972 14.784 56.684 14.384C56.4013 13.9787 55.9747 13.776 55.404 13.776ZM68.6938 20.528C68.3791 20.736 67.9978 20.9067 67.5498 21.04C67.1018 21.1733 66.6164 21.24 66.0938 21.24C65.0591 21.24 64.2804 20.9733 63.7578 20.44C63.2351 19.9013 62.9738 19.1867 62.9738 18.296V14.024H61.1338V12.528H62.9738V10.664L65.0858 10.408V12.528H67.8858L67.6698 14.024H65.0858V18.288C65.0858 18.7253 65.1924 19.0453 65.4058 19.248C65.6191 19.4507 65.9631 19.552 66.4378 19.552C66.7418 19.552 67.0191 19.5173 67.2698 19.448C67.5258 19.3733 67.7578 19.28 67.9658 19.168L68.6938 20.528Z" fill="#2A2A2A"/>
</g>
<defs>
<clipPath id="clip0_14_2">
<rect width="71" height="32" fill="white"/>
</clipPath>
</defs>
</svg>
